<mxfile host="app.diagrams.net" agent="Mozilla/5.0 (Windows NT 10.0; Win64; x64) AppleWebKit/537.36 (KHTML, like Gecko) Chrome/134.0.0.0 Safari/537.36" version="26.1.1">
  <diagram name="Page-1" id="58cdce13-f638-feb5-8d6f-7d28b1aa9fa0">
    <mxGraphModel dx="2279" dy="526" grid="1" gridSize="10" guides="1" tooltips="1" connect="1" arrows="1" fold="1" page="1" pageScale="1" pageWidth="1100" pageHeight="850" background="none" math="0" shadow="0">
      <root>
        <mxCell id="0" />
        <mxCell id="1" parent="0" />
        <mxCell id="6N1PkxW6eAnPZV9gVMKZ-1" value="Idle" style="rounded=1;whiteSpace=wrap;html=1;" vertex="1" parent="1">
          <mxGeometry x="-350" y="340" width="120" height="60" as="geometry" />
        </mxCell>
        <mxCell id="6N1PkxW6eAnPZV9gVMKZ-2" value="Adding Book" style="rounded=1;whiteSpace=wrap;html=1;" vertex="1" parent="1">
          <mxGeometry x="-150" y="460" width="120" height="60" as="geometry" />
        </mxCell>
        <mxCell id="6N1PkxW6eAnPZV9gVMKZ-3" value="Creating Wishlist" style="rounded=1;whiteSpace=wrap;html=1;" vertex="1" parent="1">
          <mxGeometry x="-350" y="450" width="120" height="60" as="geometry" />
        </mxCell>
        <mxCell id="6N1PkxW6eAnPZV9gVMKZ-4" value="Removing Book" style="rounded=1;whiteSpace=wrap;html=1;" vertex="1" parent="1">
          <mxGeometry x="10" y="460" width="120" height="60" as="geometry" />
        </mxCell>
        <mxCell id="6N1PkxW6eAnPZV9gVMKZ-5" value="Viewing Wishlist" style="rounded=1;whiteSpace=wrap;html=1;" vertex="1" parent="1">
          <mxGeometry x="-130" y="340" width="600" height="60" as="geometry" />
        </mxCell>
        <mxCell id="6N1PkxW6eAnPZV9gVMKZ-6" value="Editing Wishlist" style="rounded=1;whiteSpace=wrap;html=1;" vertex="1" parent="1">
          <mxGeometry x="180" y="460" width="120" height="60" as="geometry" />
        </mxCell>
        <mxCell id="6N1PkxW6eAnPZV9gVMKZ-7" value="Deleting Wishlist" style="rounded=1;whiteSpace=wrap;html=1;" vertex="1" parent="1">
          <mxGeometry x="350" y="460" width="120" height="60" as="geometry" />
        </mxCell>
        <mxCell id="6N1PkxW6eAnPZV9gVMKZ-9" value="" style="endArrow=classic;html=1;rounded=0;exitX=0.5;exitY=1;exitDx=0;exitDy=0;entryX=0.5;entryY=0;entryDx=0;entryDy=0;" edge="1" parent="1" source="6N1PkxW6eAnPZV9gVMKZ-1" target="6N1PkxW6eAnPZV9gVMKZ-3">
          <mxGeometry width="50" height="50" relative="1" as="geometry">
            <mxPoint x="-190" y="510" as="sourcePoint" />
            <mxPoint x="-140" y="460" as="targetPoint" />
          </mxGeometry>
        </mxCell>
        <mxCell id="6N1PkxW6eAnPZV9gVMKZ-10" value="Create" style="edgeLabel;html=1;align=center;verticalAlign=middle;resizable=0;points=[];" vertex="1" connectable="0" parent="6N1PkxW6eAnPZV9gVMKZ-9">
          <mxGeometry x="-0.0821" relative="1" as="geometry">
            <mxPoint as="offset" />
          </mxGeometry>
        </mxCell>
        <mxCell id="6N1PkxW6eAnPZV9gVMKZ-11" value="" style="endArrow=classic;html=1;rounded=0;exitX=0.072;exitY=0.968;exitDx=0;exitDy=0;exitPerimeter=0;" edge="1" parent="1" source="6N1PkxW6eAnPZV9gVMKZ-5">
          <mxGeometry width="50" height="50" relative="1" as="geometry">
            <mxPoint x="-90" y="410" as="sourcePoint" />
            <mxPoint x="-87" y="460" as="targetPoint" />
          </mxGeometry>
        </mxCell>
        <mxCell id="6N1PkxW6eAnPZV9gVMKZ-12" value="Add book" style="edgeLabel;html=1;align=center;verticalAlign=middle;resizable=0;points=[];" vertex="1" connectable="0" parent="6N1PkxW6eAnPZV9gVMKZ-11">
          <mxGeometry x="-0.1615" y="-3" relative="1" as="geometry">
            <mxPoint as="offset" />
          </mxGeometry>
        </mxCell>
        <mxCell id="6N1PkxW6eAnPZV9gVMKZ-13" value="" style="endArrow=classic;html=1;rounded=0;exitX=0.333;exitY=1.006;exitDx=0;exitDy=0;entryX=0.5;entryY=0;entryDx=0;entryDy=0;exitPerimeter=0;" edge="1" parent="1" source="6N1PkxW6eAnPZV9gVMKZ-5" target="6N1PkxW6eAnPZV9gVMKZ-4">
          <mxGeometry width="50" height="50" relative="1" as="geometry">
            <mxPoint x="-90" y="510" as="sourcePoint" />
            <mxPoint x="-40" y="460" as="targetPoint" />
          </mxGeometry>
        </mxCell>
        <mxCell id="6N1PkxW6eAnPZV9gVMKZ-14" value="Remove book" style="edgeLabel;html=1;align=center;verticalAlign=middle;resizable=0;points=[];rotation=0;" vertex="1" connectable="0" parent="6N1PkxW6eAnPZV9gVMKZ-13">
          <mxGeometry x="0.0923" y="-1" relative="1" as="geometry">
            <mxPoint x="1" y="-8" as="offset" />
          </mxGeometry>
        </mxCell>
        <mxCell id="6N1PkxW6eAnPZV9gVMKZ-15" value="" style="endArrow=classic;html=1;rounded=0;exitX=0.616;exitY=1.058;exitDx=0;exitDy=0;entryX=0.5;entryY=0;entryDx=0;entryDy=0;exitPerimeter=0;" edge="1" parent="1" source="6N1PkxW6eAnPZV9gVMKZ-5" target="6N1PkxW6eAnPZV9gVMKZ-6">
          <mxGeometry width="50" height="50" relative="1" as="geometry">
            <mxPoint x="-20" y="490" as="sourcePoint" />
            <mxPoint x="30" y="440" as="targetPoint" />
          </mxGeometry>
        </mxCell>
        <mxCell id="6N1PkxW6eAnPZV9gVMKZ-16" value="Edit" style="edgeLabel;html=1;align=center;verticalAlign=middle;resizable=0;points=[];rotation=0;" vertex="1" connectable="0" parent="6N1PkxW6eAnPZV9gVMKZ-15">
          <mxGeometry x="0.0131" relative="1" as="geometry">
            <mxPoint as="offset" />
          </mxGeometry>
        </mxCell>
        <mxCell id="6N1PkxW6eAnPZV9gVMKZ-17" value="" style="endArrow=classic;html=1;rounded=0;exitX=0.847;exitY=1.032;exitDx=0;exitDy=0;exitPerimeter=0;" edge="1" parent="1">
          <mxGeometry width="50" height="50" relative="1" as="geometry">
            <mxPoint x="1359.9999999999998" y="730" as="sourcePoint" />
            <mxPoint x="1361.8" y="788.0799999999999" as="targetPoint" />
          </mxGeometry>
        </mxCell>
        <mxCell id="6N1PkxW6eAnPZV9gVMKZ-18" value="Delete" style="edgeLabel;html=1;align=center;verticalAlign=middle;resizable=0;points=[];" vertex="1" connectable="0" parent="6N1PkxW6eAnPZV9gVMKZ-17">
          <mxGeometry x="-0.2554" y="-1" relative="1" as="geometry">
            <mxPoint as="offset" />
          </mxGeometry>
        </mxCell>
        <mxCell id="6N1PkxW6eAnPZV9gVMKZ-19" value="" style="endArrow=classic;html=1;rounded=0;exitX=1;exitY=0.5;exitDx=0;exitDy=0;entryX=0;entryY=0.5;entryDx=0;entryDy=0;" edge="1" parent="1" source="6N1PkxW6eAnPZV9gVMKZ-1" target="6N1PkxW6eAnPZV9gVMKZ-5">
          <mxGeometry width="50" height="50" relative="1" as="geometry">
            <mxPoint x="-150" y="450" as="sourcePoint" />
            <mxPoint x="-100" y="400" as="targetPoint" />
          </mxGeometry>
        </mxCell>
        <mxCell id="6N1PkxW6eAnPZV9gVMKZ-20" value="View" style="edgeLabel;html=1;align=center;verticalAlign=middle;resizable=0;points=[];rotation=0;" vertex="1" connectable="0" parent="6N1PkxW6eAnPZV9gVMKZ-19">
          <mxGeometry x="0.0408" relative="1" as="geometry">
            <mxPoint as="offset" />
          </mxGeometry>
        </mxCell>
        <mxCell id="6N1PkxW6eAnPZV9gVMKZ-21" value="" style="shape=ellipse;html=1;fillColor=strokeColor;fontSize=18;fontColor=#ffffff;" vertex="1" parent="1">
          <mxGeometry x="-430" y="355" width="30" height="30" as="geometry" />
        </mxCell>
        <mxCell id="6N1PkxW6eAnPZV9gVMKZ-22" value="" style="ellipse;html=1;shape=endState;fillColor=#000000;strokeColor=#ff0000;" vertex="1" parent="1">
          <mxGeometry x="150" y="560" width="30" height="30" as="geometry" />
        </mxCell>
        <mxCell id="6N1PkxW6eAnPZV9gVMKZ-23" value="" style="endArrow=classic;html=1;rounded=0;exitX=1;exitY=0.5;exitDx=0;exitDy=0;" edge="1" parent="1" source="6N1PkxW6eAnPZV9gVMKZ-21" target="6N1PkxW6eAnPZV9gVMKZ-1">
          <mxGeometry width="50" height="50" relative="1" as="geometry">
            <mxPoint x="-120" y="430" as="sourcePoint" />
            <mxPoint x="-70" y="380" as="targetPoint" />
          </mxGeometry>
        </mxCell>
        <mxCell id="6N1PkxW6eAnPZV9gVMKZ-25" value="" style="endArrow=classic;html=1;rounded=0;exitX=0.889;exitY=0.994;exitDx=0;exitDy=0;exitPerimeter=0;entryX=0.458;entryY=0.058;entryDx=0;entryDy=0;entryPerimeter=0;" edge="1" parent="1" source="6N1PkxW6eAnPZV9gVMKZ-5" target="6N1PkxW6eAnPZV9gVMKZ-7">
          <mxGeometry width="50" height="50" relative="1" as="geometry">
            <mxPoint x="130" y="400" as="sourcePoint" />
            <mxPoint x="180" y="350" as="targetPoint" />
          </mxGeometry>
        </mxCell>
        <mxCell id="6N1PkxW6eAnPZV9gVMKZ-26" value="Delete" style="edgeLabel;html=1;align=center;verticalAlign=middle;resizable=0;points=[];" vertex="1" connectable="0" parent="6N1PkxW6eAnPZV9gVMKZ-25">
          <mxGeometry x="-0.2553" y="-2" relative="1" as="geometry">
            <mxPoint as="offset" />
          </mxGeometry>
        </mxCell>
        <mxCell id="6N1PkxW6eAnPZV9gVMKZ-27" value="" style="endArrow=classic;html=1;rounded=0;exitX=0.5;exitY=1;exitDx=0;exitDy=0;entryX=0.344;entryY=0.064;entryDx=0;entryDy=0;entryPerimeter=0;" edge="1" parent="1" source="6N1PkxW6eAnPZV9gVMKZ-2" target="6N1PkxW6eAnPZV9gVMKZ-22">
          <mxGeometry width="50" height="50" relative="1" as="geometry">
            <mxPoint x="130" y="500" as="sourcePoint" />
            <mxPoint x="180" y="450" as="targetPoint" />
          </mxGeometry>
        </mxCell>
        <mxCell id="6N1PkxW6eAnPZV9gVMKZ-28" value="" style="endArrow=classic;html=1;rounded=0;exitX=0.5;exitY=1;exitDx=0;exitDy=0;entryX=0.318;entryY=-0.013;entryDx=0;entryDy=0;entryPerimeter=0;" edge="1" parent="1" source="6N1PkxW6eAnPZV9gVMKZ-4" target="6N1PkxW6eAnPZV9gVMKZ-22">
          <mxGeometry width="50" height="50" relative="1" as="geometry">
            <mxPoint x="130" y="500" as="sourcePoint" />
            <mxPoint x="180" y="450" as="targetPoint" />
          </mxGeometry>
        </mxCell>
        <mxCell id="6N1PkxW6eAnPZV9gVMKZ-29" value="" style="endArrow=classic;html=1;rounded=0;entryX=0.344;entryY=0.064;entryDx=0;entryDy=0;entryPerimeter=0;exitX=0.5;exitY=1;exitDx=0;exitDy=0;" edge="1" parent="1" source="6N1PkxW6eAnPZV9gVMKZ-6" target="6N1PkxW6eAnPZV9gVMKZ-22">
          <mxGeometry width="50" height="50" relative="1" as="geometry">
            <mxPoint x="130" y="500" as="sourcePoint" />
            <mxPoint x="180" y="450" as="targetPoint" />
          </mxGeometry>
        </mxCell>
        <mxCell id="6N1PkxW6eAnPZV9gVMKZ-30" value="" style="endArrow=classic;html=1;rounded=0;exitX=0.5;exitY=1;exitDx=0;exitDy=0;entryX=0.5;entryY=0;entryDx=0;entryDy=0;" edge="1" parent="1" source="6N1PkxW6eAnPZV9gVMKZ-7" target="6N1PkxW6eAnPZV9gVMKZ-22">
          <mxGeometry width="50" height="50" relative="1" as="geometry">
            <mxPoint x="130" y="500" as="sourcePoint" />
            <mxPoint x="180" y="450" as="targetPoint" />
          </mxGeometry>
        </mxCell>
      </root>
    </mxGraphModel>
  </diagram>
</mxfile>
